<mxfile host="app.diagrams.net" agent="Mozilla/5.0 (Windows NT 10.0; Win64; x64) AppleWebKit/537.36 (KHTML, like Gecko) Chrome/135.0.0.0 Safari/537.36" version="26.2.14">
  <diagram name="Page-1" id="6yNFXyjHUGz5_EQVfpbm">
    <mxGraphModel dx="3325" dy="1420" grid="0" gridSize="10" guides="1" tooltips="1" connect="1" arrows="1" fold="1" page="1" pageScale="1" pageWidth="850" pageHeight="1100" math="0" shadow="0">
      <root>
        <mxCell id="0" />
        <mxCell id="1" parent="0" />
        <mxCell id="u8lUyA5vG3xxWKhm5jKq-1" value="A&lt;font face=&quot;Times New Roman&quot;&gt;dmin&lt;/font&gt;" style="rounded=1;whiteSpace=wrap;html=1;container=0;" parent="1" vertex="1">
          <mxGeometry x="281.63" y="50" width="79.74" height="39.98" as="geometry" />
        </mxCell>
        <mxCell id="u8lUyA5vG3xxWKhm5jKq-2" value="&lt;font face=&quot;Times New Roman&quot;&gt;Teacher&lt;/font&gt;" style="rounded=1;whiteSpace=wrap;html=1;container=0;" parent="1" vertex="1">
          <mxGeometry x="93.6" y="215" width="79.74" height="41" as="geometry" />
        </mxCell>
        <mxCell id="u8lUyA5vG3xxWKhm5jKq-3" value="&lt;font face=&quot;Times New Roman&quot;&gt;Student&lt;/font&gt;" style="rounded=1;whiteSpace=wrap;html=1;container=0;" parent="1" vertex="1">
          <mxGeometry x="480" y="215" width="79.74" height="41" as="geometry" />
        </mxCell>
        <mxCell id="u8lUyA5vG3xxWKhm5jKq-5" value="" style="endArrow=classic;html=1;rounded=0;entryX=0.322;entryY=-0.003;entryDx=0;entryDy=0;entryPerimeter=0;" parent="1" edge="1">
          <mxGeometry width="50" height="50" relative="1" as="geometry">
            <mxPoint x="304" y="90" as="sourcePoint" />
            <mxPoint x="303.69999999999993" y="188.69399999999996" as="targetPoint" />
          </mxGeometry>
        </mxCell>
        <mxCell id="u8lUyA5vG3xxWKhm5jKq-6" value="&lt;font face=&quot;Times New Roman&quot;&gt;Manage Users&lt;/font&gt;" style="edgeLabel;html=1;align=center;verticalAlign=middle;resizable=0;points=[];labelBackgroundColor=default;container=0;rotation=-90;" parent="u8lUyA5vG3xxWKhm5jKq-5" vertex="1" connectable="0">
          <mxGeometry relative="1" as="geometry">
            <mxPoint x="-9" as="offset" />
          </mxGeometry>
        </mxCell>
        <mxCell id="u8lUyA5vG3xxWKhm5jKq-7" value="" style="endArrow=classic;html=1;rounded=0;entryX=0.75;entryY=1;entryDx=0;entryDy=0;exitX=0.699;exitY=-0.001;exitDx=0;exitDy=0;exitPerimeter=0;" parent="1" target="u8lUyA5vG3xxWKhm5jKq-1" edge="1">
          <mxGeometry width="50" height="50" relative="1" as="geometry">
            <mxPoint x="341.4" y="188.89799999999997" as="sourcePoint" />
            <mxPoint x="348.08000000000004" y="96.97777777777777" as="targetPoint" />
          </mxGeometry>
        </mxCell>
        <mxCell id="u8lUyA5vG3xxWKhm5jKq-10" value="&lt;span style=&quot;font-family: &amp;quot;Times New Roman&amp;quot;;&quot;&gt;Attendance Reports&lt;/span&gt;" style="edgeLabel;html=1;align=center;verticalAlign=middle;resizable=0;points=[];container=0;rotation=90;labelBackgroundColor=none;" parent="u8lUyA5vG3xxWKhm5jKq-7" vertex="1" connectable="0">
          <mxGeometry x="0.2158" y="-1" relative="1" as="geometry">
            <mxPoint x="9" y="12" as="offset" />
          </mxGeometry>
        </mxCell>
        <mxCell id="u8lUyA5vG3xxWKhm5jKq-11" value="" style="endArrow=classic;html=1;rounded=0;exitX=1;exitY=0.25;exitDx=0;exitDy=0;entryX=0.001;entryY=0.191;entryDx=0;entryDy=0;entryPerimeter=0;" parent="1" source="u8lUyA5vG3xxWKhm5jKq-2" edge="1">
          <mxGeometry width="50" height="50" relative="1" as="geometry">
            <mxPoint x="229.84199999999998" y="175.4104888888889" as="sourcePoint" />
            <mxPoint x="271.19999999999993" y="225.51599999999996" as="targetPoint" />
          </mxGeometry>
        </mxCell>
        <mxCell id="u8lUyA5vG3xxWKhm5jKq-12" value="&lt;font face=&quot;Times New Roman&quot;&gt;Generate OTP&lt;/font&gt;" style="edgeLabel;html=1;align=center;verticalAlign=middle;resizable=0;points=[];labelBackgroundColor=none;container=0;" parent="u8lUyA5vG3xxWKhm5jKq-11" vertex="1" connectable="0">
          <mxGeometry x="-0.1475" y="-1" relative="1" as="geometry">
            <mxPoint x="8" y="-10" as="offset" />
          </mxGeometry>
        </mxCell>
        <mxCell id="u8lUyA5vG3xxWKhm5jKq-13" value="" style="endArrow=classic;html=1;rounded=0;entryX=1;entryY=0.75;entryDx=0;entryDy=0;exitX=0.004;exitY=0.462;exitDx=0;exitDy=0;exitPerimeter=0;" parent="1" target="u8lUyA5vG3xxWKhm5jKq-2" edge="1">
          <mxGeometry width="50" height="50" relative="1" as="geometry">
            <mxPoint x="271.5" y="246.11200000000002" as="sourcePoint" />
            <mxPoint x="179.34" y="231.64444444444445" as="targetPoint" />
          </mxGeometry>
        </mxCell>
        <mxCell id="u8lUyA5vG3xxWKhm5jKq-14" value="&lt;span style=&quot;font-family: &amp;quot;Times New Roman&amp;quot;;&quot;&gt;Attendance Reports&lt;/span&gt;" style="edgeLabel;html=1;align=center;verticalAlign=middle;resizable=0;points=[];container=0;labelBackgroundColor=none;" parent="u8lUyA5vG3xxWKhm5jKq-13" vertex="1" connectable="0">
          <mxGeometry x="0.2158" y="-1" relative="1" as="geometry">
            <mxPoint x="10" y="9" as="offset" />
          </mxGeometry>
        </mxCell>
        <mxCell id="u8lUyA5vG3xxWKhm5jKq-16" value="" style="endArrow=classic;html=1;rounded=0;entryX=0;entryY=0.25;entryDx=0;entryDy=0;exitX=0.997;exitY=0.266;exitDx=0;exitDy=0;exitPerimeter=0;" parent="1" source="qG8Joo-HrJCL91MUSY3c-47" target="u8lUyA5vG3xxWKhm5jKq-3" edge="1">
          <mxGeometry width="50" height="50" relative="1" as="geometry">
            <mxPoint x="371.5" y="221.59199999999998" as="sourcePoint" />
            <mxPoint x="463.36" y="223.15555555555554" as="targetPoint" />
          </mxGeometry>
        </mxCell>
        <mxCell id="u8lUyA5vG3xxWKhm5jKq-17" value="&lt;font face=&quot;Times New Roman&quot;&gt;Enter OTP &amp;amp; Mark&amp;nbsp;&lt;/font&gt;&lt;div&gt;&lt;font face=&quot;Times New Roman&quot;&gt;Attendance&lt;/font&gt;&lt;/div&gt;" style="edgeLabel;html=1;align=center;verticalAlign=middle;resizable=0;points=[];labelBackgroundColor=none;container=0;" parent="u8lUyA5vG3xxWKhm5jKq-16" vertex="1" connectable="0">
          <mxGeometry x="-0.1475" y="-1" relative="1" as="geometry">
            <mxPoint x="8" y="-16" as="offset" />
          </mxGeometry>
        </mxCell>
        <mxCell id="u8lUyA5vG3xxWKhm5jKq-19" value="" style="endArrow=classic;html=1;rounded=0;entryX=1;entryY=0.61;entryDx=0;entryDy=0;entryPerimeter=0;exitX=0;exitY=0.75;exitDx=0;exitDy=0;" parent="1" source="u8lUyA5vG3xxWKhm5jKq-3" target="qG8Joo-HrJCL91MUSY3c-47" edge="1">
          <mxGeometry width="50" height="50" relative="1" as="geometry">
            <mxPoint x="460.1" y="242" as="sourcePoint" />
            <mxPoint x="371.5" y="242.33999999999997" as="targetPoint" />
          </mxGeometry>
        </mxCell>
        <mxCell id="u8lUyA5vG3xxWKhm5jKq-20" value="&lt;span style=&quot;font-family: &amp;quot;Times New Roman&amp;quot;;&quot;&gt;View Attendance&lt;/span&gt;" style="edgeLabel;html=1;align=center;verticalAlign=middle;resizable=0;points=[];container=0;labelBackgroundColor=none;" parent="u8lUyA5vG3xxWKhm5jKq-19" vertex="1" connectable="0">
          <mxGeometry x="0.2158" y="-1" relative="1" as="geometry">
            <mxPoint x="11" y="11" as="offset" />
          </mxGeometry>
        </mxCell>
        <mxCell id="qG8Joo-HrJCL91MUSY3c-46" value="" style="swimlane;fontStyle=0;childLayout=stackLayout;horizontal=1;startSize=20;fillColor=#ffffff;horizontalStack=0;resizeParent=1;resizeParentMax=0;resizeLast=0;collapsible=0;marginBottom=0;swimlaneFillColor=#ffffff;strokeColor=default;align=left;verticalAlign=middle;fontFamily=Times New Roman;fontSize=12;fontColor=default;rounded=1;" parent="1" vertex="1">
          <mxGeometry x="271.5" y="189" width="100" height="80" as="geometry" />
        </mxCell>
        <mxCell id="qG8Joo-HrJCL91MUSY3c-47" value="&lt;font face=&quot;Times New Roman&quot;&gt;Web-Based&amp;nbsp;&lt;/font&gt;&lt;div&gt;&lt;font face=&quot;Times New Roman&quot;&gt;Student Attendance&lt;/font&gt;&lt;/div&gt;&lt;div&gt;&lt;font face=&quot;Times New Roman&quot;&gt;System&amp;nbsp;&lt;/font&gt;&lt;/div&gt;" style="text;html=1;align=center;verticalAlign=middle;resizable=0;points=[];autosize=1;strokeColor=none;fillColor=none;fontFamily=Helvetica;fontSize=12;fontColor=default;" parent="qG8Joo-HrJCL91MUSY3c-46" vertex="1">
          <mxGeometry y="20" width="100" height="60" as="geometry" />
        </mxCell>
      </root>
    </mxGraphModel>
  </diagram>
</mxfile>
